<svg xmlns:svg="http://www.w3.org/2000/svg" xmlns="http://www.w3.org/2000/svg" viewBox="0 0 318.75 102.32787" height="20" width="61" xml:space="preserve" version="1.1" id="svg2">
<g id="g10" transform="matrix(1.2607679,0,0,-1.2500061,5.1077586e-4,102.32787)">
  <g clip-path="url(#clipPath16)" id="g14">
     <g transform="translate(2.6035,23.918)" id="g20">
       <path d="m 0,0 c 12.512,3.815 30.408,7.521 52.646,7.521 22.261,0.007 48.859,-3.737 78.461,-14.625 15.743,-5.789 29.356,-10.033 41.292,-12.786 11.946,-2.757 22.179,-4.028 31.375,-4.028 8.745,0.008 16.582,1.119 24.464,3.369 7.769,2.228 15.622,5.615 24.158,10.409 v 46.411 c -4.687,-1.944 -9.422,-3.625 -14.242,-5.004 -11.054,-3.176 -22.494,-4.77 -34.38,-4.762 -12.529,0.001 -25.519,1.729 -39.473,4.951 -13.963,3.227 -28.926,7.942 -45.613,14.073 C 93.105,54.924 70.91,57.937 52.646,57.944 35.671,57.943 22.083,55.314 12.545,52.592 4.187,50.207 -1.045,47.745 -2.604,46.965 V -0.82 C -1.763,-0.548 -0.897,-0.273 0,0" />
      </g>
    </g>
  </g>
</svg>

